<svg width="789" height="468" viewBox="0 0 789 468" fill="none" xmlns="http://www.w3.org/2000/svg">
<rect width="789" height="468" rx="42" fill="#4D4D4D"/>
<path d="M86 321.5V50H165L244.5 149L324 50H404V321.5H324V166.5L244.5 265.5L165 166.5V321.5H86Z" fill="white"/>
<path d="M541.5 321H621.5V182H702L581.5 50.5L462 182H541.5V321Z" fill="white"/>
<path d="M103.205 354.012L115.531 388.816L127.792 354.012H140.778V402H130.857V388.882L131.846 366.24L118.893 402H112.104L99.1836 366.272L100.172 388.882V402H90.2847V354.012H103.205ZM177.099 392.112H159.762L156.466 402H145.952L163.816 354.012H172.979L190.941 402H180.427L177.099 392.112ZM162.432 384.103H174.429L168.397 366.141L162.432 384.103ZM213.189 384.433H205.312V402H195.424V354.012H213.255C218.924 354.012 223.296 355.275 226.372 357.802C229.448 360.329 230.987 363.899 230.987 368.514C230.987 371.788 230.272 374.523 228.844 376.72C227.438 378.896 225.296 380.632 222.417 381.928L232.799 401.539V402H222.187L213.189 384.433ZM205.312 376.424H213.288C215.771 376.424 217.693 375.798 219.055 374.545C220.418 373.271 221.099 371.524 221.099 369.305C221.099 367.042 220.451 365.262 219.154 363.965C217.88 362.669 215.913 362.021 213.255 362.021H205.312V376.424ZM253.563 382.752L248.422 388.289V402H238.534V354.012H248.422V375.765L252.772 369.799L265 354.012H277.162L260.122 375.336L277.656 402H265.89L253.563 382.752ZM281.381 402V354.012H296.146C300.365 354.012 304.134 354.968 307.451 356.879C310.791 358.769 313.395 361.471 315.263 364.987C317.13 368.481 318.064 372.458 318.064 376.918V379.126C318.064 383.587 317.141 387.553 315.296 391.025C313.472 394.496 310.89 397.188 307.55 399.1C304.21 401.011 300.442 401.978 296.245 402H281.381ZM291.269 362.021V394.057H296.048C299.915 394.057 302.87 392.793 304.914 390.267C306.957 387.74 308.001 384.125 308.045 379.423V376.885C308.045 372.007 307.034 368.316 305.012 365.811C302.991 363.284 300.036 362.021 296.146 362.021H291.269ZM364.701 379.094C364.701 383.818 363.866 387.959 362.196 391.519C360.526 395.079 358.131 397.825 355.011 399.759C351.913 401.692 348.354 402.659 344.333 402.659C340.355 402.659 336.807 401.703 333.687 399.792C330.567 397.88 328.15 395.156 326.436 391.618C324.722 388.058 323.854 383.971 323.832 379.357V376.984C323.832 372.26 324.678 368.107 326.37 364.526C328.084 360.922 330.49 358.165 333.588 356.253C336.708 354.319 340.268 353.353 344.267 353.353C348.266 353.353 351.814 354.319 354.912 356.253C358.032 358.165 360.438 360.922 362.13 364.526C363.844 368.107 364.701 372.249 364.701 376.951V379.094ZM354.682 376.918C354.682 371.886 353.781 368.063 351.979 365.448C350.177 362.834 347.606 361.526 344.267 361.526C340.949 361.526 338.389 362.823 336.587 365.416C334.785 367.986 333.874 371.766 333.852 376.753V379.094C333.852 383.993 334.752 387.795 336.554 390.497C338.356 393.2 340.949 394.551 344.333 394.551C347.65 394.551 350.199 393.255 351.979 390.662C353.759 388.047 354.66 384.246 354.682 379.258V376.918ZM409.262 388.157L415.722 354.012H425.576L414.931 402H404.977L397.166 369.898L389.354 402H379.401L368.755 354.012H378.61L385.103 388.091L393.013 354.012H401.385L409.262 388.157ZM469.972 402H460.084L440.836 370.425V402H430.949V354.012H440.836L460.117 385.652V354.012H469.972V402ZM505.304 385.092V402H495.417V354.012H514.137C517.741 354.012 520.905 354.671 523.629 355.989C526.376 357.308 528.485 359.186 529.958 361.625C531.43 364.042 532.166 366.8 532.166 369.898C532.166 374.6 530.551 378.313 527.321 381.038C524.113 383.741 519.663 385.092 513.972 385.092H505.304ZM505.304 377.083H514.137C516.752 377.083 518.74 376.468 520.103 375.237C521.487 374.007 522.179 372.249 522.179 369.964C522.179 367.613 521.487 365.712 520.103 364.262C518.719 362.812 516.807 362.065 514.368 362.021H505.304V377.083ZM567.86 381.203H548.876V394.057H571.156V402H538.988V354.012H571.09V362.021H548.876V373.458H567.86V381.203ZM594.722 384.433H586.845V402H576.957V354.012H594.788C600.457 354.012 604.829 355.275 607.906 357.802C610.982 360.329 612.52 363.899 612.52 368.514C612.52 371.788 611.806 374.523 610.377 376.72C608.971 378.896 606.829 380.632 603.95 381.928L614.333 401.539V402H603.72L594.722 384.433ZM586.845 376.424H594.821C597.304 376.424 599.226 375.798 600.589 374.545C601.951 373.271 602.632 371.524 602.632 369.305C602.632 367.042 601.984 365.262 600.688 363.965C599.413 362.669 597.447 362.021 594.788 362.021H586.845V376.424ZM635.097 382.752L629.955 388.289V402H620.067V354.012H629.955V375.765L634.306 369.799L646.533 354.012H658.695L641.656 375.336L659.19 402H647.423L635.097 382.752ZM687.798 389.41C687.798 387.542 687.139 386.114 685.821 385.125C684.502 384.114 682.129 383.06 678.701 381.961C675.274 380.84 672.56 379.742 670.561 378.665C665.111 375.721 662.387 371.755 662.387 366.767C662.387 364.174 663.112 361.867 664.562 359.845C666.034 357.802 668.133 356.209 670.857 355.066C673.604 353.924 676.68 353.353 680.086 353.353C683.513 353.353 686.568 353.979 689.248 355.231C691.929 356.462 694.005 358.208 695.478 360.472C696.972 362.735 697.719 365.306 697.719 368.184H687.831C687.831 365.987 687.139 364.284 685.755 363.075C684.37 361.845 682.426 361.23 679.921 361.23C677.504 361.23 675.625 361.746 674.285 362.779C672.945 363.79 672.274 365.13 672.274 366.8C672.274 368.36 673.054 369.667 674.615 370.722C676.197 371.777 678.515 372.765 681.569 373.688C687.194 375.38 691.292 377.479 693.863 379.983C696.433 382.488 697.719 385.608 697.719 389.344C697.719 393.497 696.148 396.76 693.006 399.133C689.864 401.484 685.634 402.659 680.316 402.659C676.625 402.659 673.263 401.989 670.231 400.649C667.199 399.286 664.881 397.43 663.277 395.079C661.695 392.728 660.904 390.003 660.904 386.905H670.824C670.824 392.2 673.988 394.848 680.316 394.848C682.667 394.848 684.502 394.375 685.821 393.431C687.139 392.464 687.798 391.124 687.798 389.41Z" fill="white"/>
</svg>
